<?xml version="1.0" encoding="utf-8"?>
<!-- Generator: Adobe Illustrator 24.0.0, SVG Export Plug-In . SVG Version: 6.00 Build 0)  -->
<svg version="1.1" id="图层_1" xmlns="http://www.w3.org/2000/svg" xmlns:xlink="http://www.w3.org/1999/xlink" x="0px" y="0px"
	 viewBox="0 0 2880 1804.5" style="enable-background:new 0 0 2880 1804.5;" xml:space="preserve">
<style type="text/css">
	.st0{clip-path:url(#SVGID_2_);}
	.st1{fill:none;stroke:#979797;stroke-miterlimit:10;}
	.st2{fill:none;}
</style>
<title>table-bg</title>
<g>
	<defs>
		<rect id="SVGID_1_" width="2880" height="1801"/>
	</defs>
	<clipPath id="SVGID_2_">
		<use xlink:href="#SVGID_1_"  style="overflow:visible;"/>
	</clipPath>
	<g class="st0">
		<line class="st1" x1="-208.7" y1="1804.5" x2="-208.7" y2="-325.5"/>
		<line class="st2" x1="-208.7" y1="1804.5" x2="-208.7" y2="-325.5"/>
		<line class="st1" x1="-28.6" y1="1804.5" x2="-28.6" y2="-325.5"/>
		<line class="st2" x1="-28.6" y1="1804.5" x2="-28.6" y2="-325.5"/>
		<line class="st1" x1="151.4" y1="1804.5" x2="151.4" y2="-325.5"/>
		<line class="st2" x1="151.4" y1="1804.5" x2="151.4" y2="-325.5"/>
		<line class="st1" x1="331.4" y1="1804.5" x2="331.4" y2="-325.5"/>
		<line class="st2" x1="331.4" y1="1804.5" x2="331.4" y2="-325.5"/>
		<line class="st1" x1="511.4" y1="1804.5" x2="511.4" y2="-325.5"/>
		<line class="st2" x1="511.4" y1="1804.5" x2="511.4" y2="-325.5"/>
		<line class="st1" x1="691.4" y1="1804.5" x2="691.4" y2="-325.5"/>
		<line class="st2" x1="691.4" y1="1804.5" x2="691.4" y2="-325.5"/>
		<line class="st1" x1="871.4" y1="1804.5" x2="871.4" y2="-325.5"/>
		<line class="st2" x1="871.4" y1="1804.5" x2="871.4" y2="-325.5"/>
		<line class="st1" x1="1051.4" y1="1804.5" x2="1051.4" y2="-325.5"/>
		<line class="st2" x1="1051.4" y1="1804.5" x2="1051.4" y2="-325.5"/>
		<line class="st1" x1="1231.5" y1="1804.5" x2="1231.5" y2="-325.5"/>
		<line class="st2" x1="1231.5" y1="1804.5" x2="1231.5" y2="-325.5"/>
		<line class="st1" x1="1411.5" y1="1804.5" x2="1411.5" y2="-325.5"/>
		<line class="st2" x1="1411.5" y1="1804.5" x2="1411.5" y2="-325.5"/>
		<line class="st1" x1="1591.5" y1="1804.5" x2="1591.5" y2="-325.5"/>
		<line class="st2" x1="1591.5" y1="1804.5" x2="1591.5" y2="-325.5"/>
		<line class="st1" x1="1771.5" y1="1804.5" x2="1771.5" y2="-325.5"/>
		<line class="st2" x1="1771.5" y1="1804.5" x2="1771.5" y2="-325.5"/>
		<line class="st1" x1="1951.5" y1="1804.5" x2="1951.5" y2="-325.5"/>
		<line class="st2" x1="1951.5" y1="1804.5" x2="1951.5" y2="-325.5"/>
		<line class="st1" x1="2131.5" y1="1804.5" x2="2131.5" y2="-325.5"/>
		<line class="st2" x1="2131.5" y1="1804.5" x2="2131.5" y2="-325.5"/>
		<line class="st1" x1="2311.6" y1="1804.5" x2="2311.6" y2="-325.5"/>
		<line class="st2" x1="2311.6" y1="1804.5" x2="2311.6" y2="-325.5"/>
		<line class="st1" x1="2491.6" y1="1804.5" x2="2491.6" y2="-325.5"/>
		<line class="st2" x1="2491.6" y1="1804.5" x2="2491.6" y2="-325.5"/>
		<line class="st1" x1="2671.6" y1="1804.5" x2="2671.6" y2="-325.5"/>
		<line class="st2" x1="2671.6" y1="1804.5" x2="2671.6" y2="-325.5"/>
		<line class="st1" x1="2851.6" y1="1804.5" x2="2851.6" y2="-325.5"/>
		<line class="st2" x1="2851.6" y1="1804.5" x2="2851.6" y2="-325.5"/>
		<line class="st1" x1="2995.5" y1="-235.5" x2="-307.3" y2="-235.5"/>
		<line class="st2" x1="2995.5" y1="-235.5" x2="-307.3" y2="-235.5"/>
		<line class="st1" x1="2995.5" y1="-56.6" x2="-307.3" y2="-56.6"/>
		<line class="st2" x1="2995.5" y1="-56.6" x2="-307.3" y2="-56.6"/>
		<line class="st1" x1="2995.5" y1="122.4" x2="-307.3" y2="122.4"/>
		<line class="st2" x1="2995.5" y1="122.4" x2="-307.3" y2="122.4"/>
		<line class="st1" x1="2995.5" y1="301.3" x2="-307.3" y2="301.3"/>
		<line class="st2" x1="2995.5" y1="301.3" x2="-307.3" y2="301.3"/>
		<line class="st1" x1="2995.5" y1="480.3" x2="-307.3" y2="480.3"/>
		<line class="st2" x1="2995.5" y1="480.3" x2="-307.3" y2="480.3"/>
		<line class="st1" x1="2995.5" y1="659.2" x2="-307.3" y2="659.2"/>
		<line class="st2" x1="2995.5" y1="659.2" x2="-307.3" y2="659.2"/>
		<line class="st1" x1="2995.5" y1="838.1" x2="-307.3" y2="838.1"/>
		<line class="st2" x1="2995.5" y1="838.1" x2="-307.3" y2="838.1"/>
		<line class="st1" x1="2995.5" y1="1017.1" x2="-307.3" y2="1017.1"/>
		<line class="st2" x1="2995.5" y1="1017.1" x2="-307.3" y2="1017.1"/>
		<line class="st1" x1="2995.5" y1="1196" x2="-307.3" y2="1196"/>
		<line class="st2" x1="2995.5" y1="1196" x2="-307.3" y2="1196"/>
		<line class="st1" x1="2995.5" y1="1374.9" x2="-307.3" y2="1374.9"/>
		<line class="st2" x1="2995.5" y1="1374.9" x2="-307.3" y2="1374.9"/>
		<line class="st1" x1="2995.5" y1="1553.9" x2="-307.3" y2="1553.9"/>
		<line class="st2" x1="2995.5" y1="1553.9" x2="-307.3" y2="1553.9"/>
		<line class="st1" x1="2995.5" y1="1732.8" x2="-307.3" y2="1732.8"/>
		<line class="st2" x1="2995.5" y1="1732.8" x2="-307.3" y2="1732.8"/>
	</g>
</g>
</svg>
