<svg xmlns="http://www.w3.org/2000/svg" width="158" height="158" viewBox="0 0 158 158">
    <g fill-rule="evenodd">
        <path d="M111.541 89c-4.79 0-8.541-3.747-8.541-8.55 0-4.736 3.75-8.45 8.541-8.45 4.742 0 8.459 3.697 8.459 8.45 0 4.704-3.783 8.55-8.459 8.55zM79.5 17.533c15.31 0 29.656 4.18 41.993 11.467L136 17.533C119.903 6.473 100.449 0 79.5 0 58.568 0 39.113 6.473 23 17.533L37.507 29c12.337-7.287 26.7-11.467 41.993-11.467zM37.518 129L23 140.45C39.125 151.527 58.573 158 79.5 158c20.943 0 40.375-6.473 56.5-17.55L121.498 129c-12.335 7.287-26.677 11.467-41.982 11.467-15.321 0-29.663-4.18-41.998-11.467zM17.533 79.5c0-15.31 4.18-29.672 11.467-41.993L17.55 23C6.473 39.113 0 58.551 0 79.5c0 20.949 6.473 40.387 17.55 56.5L29 121.477C21.713 109.172 17.533 94.81 17.533 79.5zM129 120.496L140.467 135C151.527 118.905 158 99.454 158 78.508c0-20.946-6.473-40.381-17.533-56.508L129 36.504c7.287 12.337 11.467 26.68 11.467 41.988 0 15.324-4.18 29.684-11.467 42.004zM53.5 117c-8.135 0-15.082-2.205-21.291-6.793L32 110.03V94.498l.93 1.12c1.782 2.123 8.488 9.029 19.415 9.029 8.44 0 9.338-6.258 9.338-8.965 0-5.447-5.616-8.608-11.857-11.607l-.482-.244C41.21 79.941 32 75.5 32 63.454c0-10.78 8.969-18.951 21.356-19.422C53.917 44 54.463 44 55.024 44c10.686 0 16.093 4.07 17.056 4.88l.208.162v13.261l-.882-.795c-3.803-3.372-9.996-5.544-15.756-5.544-2.631 0-4.942.454-6.675 1.297-2.487 1.216-3.69 3.226-3.69 6.193 0 3.712 4.3 5.933 9.74 8.738l.914.486C63.063 76.374 75 82.583 75 96.282c0 5.803-2.423 11.77-6.161 15.19C64.908 115.022 59.453 117 53.5 117z"/>
        <path d="M96.364 117H83V48.648l.336-.129C83.799 48.326 94.877 44 106.642 44c12.692 0 19.086 4.744 19.15 4.793l.208.16V62.207l-.895-.692c-1.023-.788-6.65-4.712-16.976-4.921-.224-.016-.48-.016-.72-.016-5.307 0-9.063 1.158-10.838 1.833l-.24.08v57.979l.033.531z"/>
    </g>
</svg>
