<svg xmlns="http://www.w3.org/2000/svg" xmlns:xlink="http://www.w3.org/1999/xlink" width="111" height="99" viewBox="0 0 111 99">
    <defs>
        <path id="prefix__a" d="M101.975 9.312C96.148 3.43 88.38 0 80.123 0c-8.255 0-16.51 3.43-22.337 9.312l-1.942 1.96-1.943-1.96c-12.14-12.253-32.05-12.253-44.19 0C3.4 15.193 0 23.525 0 31.856c0 8.332 3.4 16.664 9.226 22.545L51.96 97.53c.971.98 1.942 1.47 3.399 1.47s2.428-.49 3.4-1.47L101.49 54.4c5.827-5.881 9.226-14.213 9.226-22.545.971-8.331-2.428-16.663-8.74-22.544z"/>
    </defs>
    <g fill="none" fill-rule="evenodd">
        <use fill="#D66852" fill-rule="nonzero" xlink:href="#prefix__a"/>
    </g>
</svg>
